<svg xmlns="http://www.w3.org/2000/svg" version="1.1" xmlns:xlink="http://www.w3.org/1999/xlink" width="1000" height="1000"><g clip-path="url(#SvgjsClipPath1010)"><rect width="1000" height="1000" fill="#ffffff"></rect><g transform="matrix(3.5,0,0,3.5,150,150)"><svg xmlns="http://www.w3.org/2000/svg" version="1.1" xmlns:xlink="http://www.w3.org/1999/xlink" width="200" height="200"><svg xmlns="http://www.w3.org/2000/svg" version="1.1" xmlns:xlink="http://www.w3.org/1999/xlink" viewBox="0 0 200 200"><rect width="200" height="200" fill="url('#gradient')"></rect><defs><linearGradient id="gradient" gradientTransform="rotate(110 0.5 0.5)"><stop offset="0%" stop-color="#11255b"></stop><stop offset="100%" stop-color="#0a0e27"></stop></linearGradient><clipPath id="SvgjsClipPath1010"><rect width="1000" height="1000" x="0" y="0" rx="350" ry="350"></rect></clipPath></defs><g><g fill="#f5eec8" transform="matrix(7.1122336227308605,0,0,7.1122336227308605,9.497217630022789,150.56735687368766)" stroke="#82b7ab" stroke-width="0.8"><path d="M12.24-14.22L12.24-11.57L7.97-11.57L7.97 0L4.54 0L4.54-11.57L0.35-11.57L0.35-14.22L12.24-14.22ZM21.42 0L20.59-2.66L15.89-2.66L15.07 0L11.41 0L16.62-14.22L19.84-14.22L25.10 0L21.42 0ZM18.23-10.23L16.71-5.30L19.77-5.30L18.23-10.23Z"></path></g></g></svg></svg></g></g></svg>